PathFileType	4	(X/Y/Z)	path1_11_0-607.trc
DataRate	CameraRate	NumFrames	NumMarkers	Units	OrigDataRate	OrigDataStartFrame	OrigNumFrames
30	30	8	22	m	30	227	607
Frame#	Time	Hip			RHip			RKnee			RAnkle			RBigToe			RSmallToe			RHeel			LHip			LKnee			LAnkle			LBigToe			LSmallToe			LHeel			Neck			Head			Nose			RShoulder			RElbow			RWrist			LShoulder			LElbow			LWrist		
		X1	Y1	Z1	X2	Y2	Z2	X3	Y3	Z3	X4	Y4	Z4	X5	Y5	Z5	X6	Y6	Z6	X7	Y7	Z7	X8	Y8	Z8	X9	Y9	Z9	X10	Y10	Z10	X11	Y11	Z11	X12	Y12	Z12	X13	Y13	Z13	X14	Y14	Z14	X15	Y15	Z15	X16	Y16	Z16	X17	Y17	Z17	X18	Y18	Z18	X19	Y19	Z19	X20	Y20	Z20	X21	Y21	Z21	X22	Y22	Z22
228	7.6	2.7628135490041057	0.8361662958660534	0.6265992162118748	2.7671259129056494	0.8021365878906399	0.5444129218069241	2.7721093844865328	0.45434632579925277	0.5749160331931074	2.818702566526121	0.10032065124908357	0.5846674372515119	2.61830113332912	0.02561947410143909	0.5597478561240252	2.6590139374216717	0.02159710461856218	0.5000642943977012	2.865890125894739	0.036887580584058145	0.557841097410463	2.7549904517629233	0.7988381859035611	0.7086518419262907	2.766656111684658	0.44409247323760515	0.6892834485710169	2.79159700903446	0.1166605398852825	0.6847825838316581	2.631282537796325	0.02445767185668931	0.6838796305736959	2.668668287430031	0.028162245755890627	0.746227019336668	2.8611421676208346	0.0422136529454114	0.7022511659283487	2.7357441942056115	1.4687127013865724	0.6419595036390785	2.6861497954168776	1.7052289015835902	0.6397929980633341	2.6034758870497288	1.6040529171538644	0.6039033542195419	2.784718649432482	1.3618300915816923	0.4740001833502668	2.7874985310868947	1.0756287732572312	0.414057357130559	2.7797188900611034	0.8446294143055021	0.42295234970471585	2.7183335469341787	1.34482158483632	0.8047509326579897	2.809031813932283	1.0512512033230061	0.791791773550722	2.804187231730033	0.827223121947827	0.805277186379043
229	7.633333333333334	2.7625958593124667	0.8359992849120444	0.6266985046625166	2.767217847271924	0.8012375030959572	0.5447954339946578	2.7671071549373893	0.45581281071804014	0.5695537051005239	2.819280551687421	0.1001868463936777	0.5859146311549764	2.6183416519239664	0.02544375916584951	0.5598932982652141	2.6591288330038343	0.0216576226207916	0.5004013272362072	2.8663822066358615	0.036162682225061006	0.5585931431283329	2.7554097684973136	0.7979874341898487	0.7083903299970856	2.768534866477133	0.4427093901644045	0.6883777468398511	2.7910247841937372	0.11672071536532286	0.683754764999193	2.6307144406376843	0.024591327016588324	0.6836786954867768	2.6679448578534526	0.027941747327738874	0.7458361576945597	2.8612182518167404	0.041965120480862386	0.702366499908507	2.7357163421556776	1.4689557200905643	0.6419912333320082	2.688206250043637	1.7063370719398712	0.6408974734010522	2.6033985451260695	1.6041634466268655	0.6038360718299618	2.784761949955081	1.3616892413909387	0.4738740014108291	2.7877464094506044	1.075205215945004	0.41433264403396186	2.779644454353577	0.8443072871901772	0.42285116904092507	2.718128196394839	1.3446117185541628	0.8045228670721436	2.809495944456757	1.0513495948579625	0.7915924883895078	2.8061446590103865	0.8265369330725414	0.8039621909523955
230	7.666666666666667	2.7622514208835267	0.8359839291134092	0.6266955555579524	2.767333380561103	0.8005089808673572	0.5452212358926132	2.7619421295989386	0.45733486770011084	0.563946745011475	2.8190678196990837	0.10065620917009198	0.5859593750322176	2.618350524164296	0.02525180609265509	0.5601457440729009	2.6591247147290895	0.02169378469773478	0.5007433032985431	2.8663439267294226	0.035859282440354676	0.5596768466870112	2.755753470854441	0.797387966624644	0.7082766143452541	2.7703540876518526	0.44127139512896224	0.6875450987103944	2.791019781137705	0.11649581916376685	0.6832583945098569	2.6307087418519943	0.024633138682110173	0.6839468616971455	2.6675528156251422	0.027695700769402237	0.7455502094771433	2.86140372603216	0.041729500826770856	0.7025498016840928	2.7356165442191402	1.4691482981587618	0.6418555050384294	2.688854349335125	1.7064885108379384	0.6408810036193028	2.6033292942161004	1.6042911585534751	0.6040781227079451	2.7849797623407704	1.3614278794159058	0.4738884988380619	2.788036946093025	1.0747249554311802	0.4145364458538361	2.779597001205608	0.843948180523735	0.4227280781696975	2.718169808247765	1.3444976993124196	0.8044108653826731	2.8099921770542946	1.0513430318336554	0.7914947336872208	2.808150146074637	0.8265907230096291	0.8035319143616249
231	7.7	2.761836177313357	0.8361094899158902	0.6266565618915735	2.767388344281588	0.8001629928666006	0.5455978341542487	2.757299812289589	0.4587268511727633	0.5587850032547537	2.818317773230621	0.10151291247905316	0.5848548857245036	2.618366789276905	0.024996729778833403	0.560457794345526	2.6589757427549348	0.021701396965663512	0.5010078231514717	2.865978383085372	0.03601311537947052	0.5608454730658662	2.755937257820682	0.7971825644688859	0.7083239759462998	2.77198081353189	0.4399198420321918	0.6868601052910662	2.7914816056224145	0.11613427710943856	0.6832314081032682	2.63119038907887	0.024559719210370003	0.6846167534078027	2.667703585514124	0.02731792712212558	0.7453680425120176	2.8616306568405743	0.041576217802771764	0.7027811754692832	2.735497206382146	1.4692274286523959	0.6415736480856398	2.6882359187871363	1.7058558784800162	0.639928537101668	2.6033290487568093	1.6044528441886936	0.6046246328369054	2.785307429072947	1.3610833371325934	0.47405499831552855	2.788280684900608	1.074290295214396	0.41448442232278326	2.779538186664937	0.84361840348323	0.42259806880783085	2.7184103414102347	1.344506875243581	0.804396399335053	2.8104315069558274	1.0512479585638532	0.7915129824879154	2.8097912880634026	0.8272756115801544	0.8039549763828329
232	7.733333333333333	2.7614328313580767	0.836353168842813	0.6266543804533623	2.7673558601357864	0.8002869484749482	0.5458858465347849	2.752987632331666	0.4600938022499799	0.553820401131352	2.8173784213675623	0.10240761512096713	0.5827842595306192	2.6183711388797932	0.024709101786685405	0.560725584363103	2.658704206303505	0.02167105093293113	0.5011480764145282	2.8655615480203673	0.03646805770058575	0.5616899885852497	2.75596536072723	0.7974192801137765	0.708526867887434	2.772964583688647	0.4390620016633839	0.6865088005481557	2.792304680150496	0.11574349926402416	0.6836504332840818	2.6320061488566973	0.024373520602279274	0.6855452884226232	2.668488190887914	0.026698068058241972	0.7452368126588867	2.861818149262139	0.041593754473413576	0.7029905383940963	2.735432831207436	1.4691655324850355	0.6412118129053616	2.6866305067081635	1.704729081300641	0.6383954018883498	2.6034140917833444	1.6046710987628823	0.6052628588305092	2.785692386766341	1.3607239328327785	0.47435058133105823	2.78845429250156	1.0739401710472842	0.4141661545080323	2.7794455192328744	0.8433422456717153	0.4224618990426626	2.7187172803646273	1.3446524665478374	0.8043919589857303	2.8107103749368147	1.0511531493941593	0.7915939361717217	2.8106716578314295	0.8283567569780256	0.8050008544675991
233	7.766666666666667	2.7611449245147686	0.836660201868353	0.6267341444901541	2.7673075796717357	0.8008036436609441	0.5460696512479949	2.7492205889843375	0.4613622847447041	0.5493365826710627	2.8165556906402913	0.10306858727133192	0.5799772493480063	2.618333904540672	0.024516229632498093	0.5608621264356183	2.6583841934232995	0.02161165161881598	0.5011495732491937	2.8652321876138522	0.03701996291432281	0.5616243534105392	2.7558975883929846	0.7980049962184886	0.7088536942365966	2.7728905070516565	0.4390453015321341	0.6866417539721372	2.7934174216351826	0.1153312179952389	0.6845156098004533	2.6329818622406167	0.02411151994228707	0.6864559678806272	2.6695852981526538	0.025983049338135503	0.7451110032283407	2.8619246872249526	0.04180886431125733	0.7031232407450023	2.73547387181117	1.468993304897457	0.6408730285901418	2.6846513697644285	1.703571242671321	0.6368564157379074	2.6035713042827004	1.6049207698310624	0.6057564796633469	2.7860826400634218	1.3604399741220983	0.47469897363466124	2.788549262994596	1.073668679784792	0.41368864751798223	2.779335497076117	0.8430803402802342	0.42231955770189133	2.7189715004874926	1.3449295390834948	0.8043285078185247	2.8107872375033924	1.0511185314748954	0.7916570002030358	2.8106905720480633	0.8295737160079957	0.8063233419789148
234	7.8	2.7610911025497633	0.8369320972245705	0.626903830189236	2.7674175457057975	0.8014824715470005	0.5461577015828092	2.7465222634311552	0.46231664938852773	0.5459512832754998	2.816057817696831	0.10335598605920145	0.576820298578457	2.6182358775432943	0.02454613285704303	0.560855781052732	2.6581042793835343	0.021561072154985993	0.5010185482897536	2.8650152371451836	0.03746386354623218	0.5604612558130082	2.7558193851665975	0.798717725456367	0.7092615019298226	2.771500826656025	0.44003564730949885	0.6873456864314551	2.794687899038005	0.11487815292602727	0.6857181132199788	2.633895779472616	0.023887999204465295	0.6870226470113909	2.6705087261769678	0.02544169922678482	0.7449918715924425	2.861953998093196	0.042141636843752744	0.7031964183643387	2.7356050965994063	1.4687953774708038	0.6406164409015052	2.6832211117861657	1.7029659009687994	0.6359516542855016	2.6037813061941435	1.6051478826318475	0.6060571555588133	2.786438628898763	1.360303478571641	0.4750009280705696	2.7885571833981246	1.0734748747179748	0.41317541003951586	2.779254351201395	0.8428088328713611	0.42218091450853446	2.719144152834008	1.345312560179841	0.804228522682973	2.810746337742166	1.0511171440449982	0.7916460510228822	2.8102609672403256	0.8306553414318801	0.8074460423598054
235	7.833333333333333	2.7613453814194657	0.8370656864205116	0.6271407211150489	2.767829925762129	0.8020555175821598	0.5462026659394482	2.745027088489347	0.46286683118036914	0.5438086619053613	2.816027523538293	0.10317895984959961	0.5741662518246515	2.6180733770397353	0.024824629028156874	0.5607491283108303	2.657908600823151	0.021559584315924116	0.5007948327943742	2.864964241020775	0.03756358635167182	0.5588818482097536	2.7558153122377185	0.7993241646026941	0.7097053486101513	2.7688376226263203	0.44196470082290384	0.6885960396979404	2.7957303426019906	0.11450750467786013	0.6868492002823879	2.634606785137085	0.023823412904057806	0.6871690293150721	2.6709720741932337	0.025238443576611095	0.744918910971585	2.8619333121880484	0.04245073530369738	0.7032979699847732	2.7357597460649616	1.468662323175287	0.6404400839245477	2.6828257906328465	1.7031447926197945	0.6358776504468472	2.6040137712240514	1.6053261316423657	0.606302238458856	2.7867375041938	1.3603342089396078	0.4751954062152204	2.788486541093959	1.0733902406202127	0.4127339293819662	2.779234579321456	0.8425864006961854	0.4220622121074539	2.719289855227114	1.3457443931398845	0.8041850865316209	2.8107623835227336	1.0510927614261647	0.7915401729136378	2.8101568802012378	0.8313324454603354	0.8078226725677575
